<?xml version="1.0" encoding="UTF-8"?>
<svg id="uuid-0fa35954-bc39-466d-82ee-2f57a4041eb2" data-name="Capa 1" xmlns="http://www.w3.org/2000/svg" viewBox="0 0 150 150">
  <defs>
    <style>
      .uuid-14dcd2bb-1fc8-47d8-b57f-205fe38fd342 {
        fill: #fff;
      }

      .uuid-b1752bd1-9bb3-40e8-8fe9-e7346cad3601 {
        fill: #725858;
      }

      .uuid-7b4d6a50-4dff-4bcc-8153-cca909923ecc {
        fill: #70cc40;
      }

      .uuid-c237757d-38e2-4570-86cd-a93a9863646a {
        fill: #ffc9b0;
      }

      .uuid-2645755a-0eea-4a7e-b8aa-1a75b5ac687d {
        fill: #f56132;
      }

      .uuid-9b26ed84-7e5a-4a8e-9f3e-2b0539a38b2b {
        fill: #dfeaef;
      }

      .uuid-de7b537d-133f-4f36-8c7b-3a1f5c221a9b {
        fill: #093f68;
      }

      .uuid-0ce5f370-1d6b-43f0-8db6-eeea2c8111f1 {
        fill: #68e1fd;
      }
    </style>
  </defs>
  <g id="uuid-40ed8dcb-bc0e-4a58-bcfa-9687701db16e" data-name=" 364 customer service outline">
    <path class="uuid-de7b537d-133f-4f36-8c7b-3a1f5c221a9b" d="m95.43,50.84c-.28,0-.51-.23-.51-.51v-3.27c-.18-11.77-9.87-21.17-21.65-20.99-11.52.18-20.81,9.47-20.99,20.99v3.27c0,.28-.23.51-.51.51s-.51-.23-.51-.51v-3.27c.19-12.34,10.34-22.19,22.67-22,12.07.18,21.82,9.93,22,22v3.27c0,.28-.23.51-.51.51Z"/>
    <path class="uuid-2645755a-0eea-4a7e-b8aa-1a75b5ac687d" d="m93.91,118.45c0,1.94,3.45,1.93,7.72,1.93s7.71,0,7.71-1.93-3.45-4.59-7.71-4.59-7.72,2.65-7.72,4.59Z"/>
    <path class="uuid-de7b537d-133f-4f36-8c7b-3a1f5c221a9b" d="m101.79,120.89h-.24c-1.83.06-3.67-.03-5.49-.25-.66-.11-2.66-.46-2.66-2.19,0-2.3,3.8-5.1,8.23-5.1s8.22,2.81,8.22,5.1c0,1.73-2,2.08-2.66,2.19-1.79.22-3.6.31-5.4.25Zm-.24-1.02h.23c1.75.06,3.5-.02,5.24-.23,1.81-.32,1.81-.93,1.81-1.19,0-1.61-3.22-4.08-7.2-4.08s-7.2,2.47-7.2,4.08c0,.26,0,.87,1.81,1.19,1.76.21,3.54.29,5.31.23h0Z"/>
    <path class="uuid-c237757d-38e2-4570-86cd-a93a9863646a" d="m93.49,111.92s2.59.86,3.16,1.91,1.06,5.46,2.49,5.08.19-4.79,1.34-4.69,9.05,3.93,8.86,1.92-3.78-5.17-6.85-6.7-8.29-2.2-8.29-2.2l-.71,4.69Z"/>
    <path class="uuid-de7b537d-133f-4f36-8c7b-3a1f5c221a9b" d="m98.96,119.45c-.21,0-.41-.06-.59-.16-.81-.47-1.21-1.81-1.69-3.64-.12-.53-.28-1.06-.48-1.56-.35-.64-1.94-1.36-2.87-1.67-.24-.08-.38-.32-.34-.56l.71-4.69c.04-.27.29-.46.57-.43.22,0,5.35.7,8.45,2.25,2.84,1.42,6.89,4.68,7.14,7.11.05.34-.09.68-.36.89-.91.7-3.38-.16-6.77-1.46-.85-.32-1.81-.69-2.18-.77-.09.48-.12.97-.1,1.46,0,1.36,0,2.9-1.16,3.2-.11.03-.22.04-.33.04Zm-4.91-7.86c.81.31,2.52,1.05,3.06,2.01.25.57.44,1.17.58,1.79.27,1.02.71,2.73,1.22,3.02.03.02.08.02.11,0,.38-.1.4-1.48.4-2.22,0-1.02,0-1.86.46-2.27.17-.16.41-.24.65-.21.88.2,1.73.48,2.55.85,1.53.58,5.06,1.93,5.76,1.62-.19-1.66-3.36-4.69-6.56-6.3-2.41-1.2-6.28-1.87-7.65-2.08l-.58,3.8Z"/>
    <path class="uuid-b1752bd1-9bb3-40e8-8fe9-e7346cad3601" d="m76.92,49.64c-7.3-.9-16.65.98-22,6.27-.86.74-1.5,1.69-1.86,2.76-.91,3.52-.08,6.96-3.19,9.61-.79.68-1.7,1.22-2.42,1.98-2.35,2.45-1.86,7,.95,8.9-1.59,1.53-1.83,4.04-1.35,6.19.87,3.9,3.78,7.14,7.24,9.12s7.44,2.9,11.4,3.43c5.76.77,11.69.81,17.31-.67,5.62-1.48,10.93-4.57,14.41-9.22,1.19-1.45,1.97-3.19,2.29-5.04.36-2.86-1.02-5.61-2.34-8.16,1.94-2.28,2.41-5.57,1.72-8.48s-2.43-5.49-4.47-7.65c-4.67-4.98-10.93-8.17-17.7-9.03Z"/>
    <path class="uuid-de7b537d-133f-4f36-8c7b-3a1f5c221a9b" d="m73.16,98.93c-2.52,0-5.04-.17-7.54-.51-4.99-.67-8.56-1.75-11.59-3.49-3.91-2.26-6.63-5.7-7.48-9.45-.55-2.44-.14-4.72,1.09-6.24-1.24-1.09-2.02-2.61-2.17-4.26-.24-1.84.35-3.69,1.6-5.06.47-.47.99-.91,1.53-1.3.32-.24.63-.47.92-.72,2.04-1.72,2.24-3.77,2.51-6.12.09-1.08.26-2.15.51-3.21.38-1.16,1.07-2.2,1.99-3,5.69-5.61,15.36-7.28,22.42-6.41h0c6.88.89,13.25,4.13,18.01,9.18,2.41,2.58,3.96,5.24,4.59,7.9.76,3.19.15,6.39-1.61,8.67,1.21,2.34,2.61,5.19,2.25,8.19-.21,1.68-.99,3.41-2.39,5.28-3.33,4.45-8.55,7.79-14.69,9.41-3.26.8-6.61,1.19-9.96,1.13Zm-.07-49.02c-7.83,0-14.42,3-17.82,6.35-.79.68-1.38,1.56-1.72,2.55-.24,1.01-.41,2.03-.51,3.06-.27,2.37-.51,4.82-2.86,6.8-.32.27-.65.51-.97.77-.5.35-.97.75-1.41,1.18-2.02,2.35-1.74,5.9.61,7.91.08.07.17.14.26.21.13.09.21.23.22.38.01.15-.04.31-.15.41-1.28,1.25-1.72,3.38-1.2,5.71.78,3.47,3.33,6.67,7,8.79,2.9,1.67,6.36,2.71,11.23,3.36,6.52.87,12.11.65,17.11-.66,5.92-1.53,10.93-4.77,14.13-9.03,1.29-1.72,2.01-3.29,2.19-4.79.32-2.6-.85-5.1-2.29-7.89-.1-.18-.07-.41.07-.57,1.7-2,2.32-5.07,1.62-8.03-.59-2.48-2.04-4.99-4.35-7.44-4.6-4.86-10.75-7.99-17.39-8.84-1.24-.16-2.5-.24-3.75-.25h0Z"/>
    <path class="uuid-b1752bd1-9bb3-40e8-8fe9-e7346cad3601" d="m73.37,29.54h.8c10.29,0,18.63,8.34,18.63,18.63v5.51h-38.06v-5.51c0-10.29,8.34-18.63,18.63-18.63h0Z"/>
    <path class="uuid-de7b537d-133f-4f36-8c7b-3a1f5c221a9b" d="m92.84,54.19h-38.09c-.28,0-.51-.23-.51-.51v-5.51c.01-10.56,8.57-19.13,19.13-19.14h.81c10.57,0,19.15,8.57,19.17,19.14v5.51c0,.28-.23.51-.51.51Zm-37.55-1.02h37.04v-5c-.01-10-8.12-18.11-18.12-18.12h-.81c-10,.01-18.11,8.12-18.11,18.12v5Z"/>
    <polyline class="uuid-c237757d-38e2-4570-86cd-a93a9863646a" points="70.09 81.75 70.09 77.69 77.16 77.69 77.16 81.75"/>
    <path class="uuid-de7b537d-133f-4f36-8c7b-3a1f5c221a9b" d="m77.16,82.26c-.28,0-.51-.23-.51-.51v-3.57h-6.04v3.57c0,.28-.23.51-.51.51s-.51-.23-.51-.51v-4.08c0-.28.23-.51.51-.51h7.06c.28,0,.51.23.51.51v4.08c0,.28-.23.51-.51.51Z"/>
    <path class="uuid-c237757d-38e2-4570-86cd-a93a9863646a" d="m73.61,78.61h0c-10.42,0-18.88-6.2-18.88-17.63v-8c11.12,2.09,12.81-9.46,12.81-9.46,10.09,17.54,24.9,5.94,24.9,5.94v11.52c.02,11.43-8.42,17.63-18.83,17.63Z"/>
    <path class="uuid-de7b537d-133f-4f36-8c7b-3a1f5c221a9b" d="m73.61,79.12c-11.59,0-19.39-7.29-19.39-18.14v-8c0-.28.22-.51.5-.52.03,0,.07,0,.1,0,3.06.58,5.69.12,7.76-1.36,3.68-2.62,4.45-7.62,4.46-7.65.03-.21.2-.38.41-.42.21-.04.43.06.54.24,3.02,5.26,6.77,8.36,11.13,9.18,6.84,1.33,12.95-3.37,13.01-3.41.22-.17.54-.14.72.08.07.09.11.2.11.32v11.52c.02,10.86-7.78,18.15-19.35,18.15Zm-18.37-25.51v7.39c0,11.83,9.22,17.12,18.37,17.12s18.37-5.29,18.37-17.12v-10.56c-1.96,1.3-7.14,4.17-13.01,3.06-4.35-.85-8.1-3.74-11.16-8.6-.51,1.79-1.73,5.03-4.59,7.07-2.18,1.52-4.85,2.07-7.95,1.61l-.02.02Z"/>
    <circle class="uuid-de7b537d-133f-4f36-8c7b-3a1f5c221a9b" cx="64.27" cy="60.36" r="1.81"/>
    <circle class="uuid-de7b537d-133f-4f36-8c7b-3a1f5c221a9b" cx="82.95" cy="60.36" r="1.81"/>
    <path class="uuid-de7b537d-133f-4f36-8c7b-3a1f5c221a9b" d="m73.8,66.31c-.59,0-1.17-.05-1.76-.14-.28-.05-.46-.31-.41-.59,0,0,0,0,0,0,.05-.28.31-.46.59-.41,0,0,0,0,0,0,.91.15,1.83.15,2.74,0,.16-.47-.51-2.46-1.53-4.35-.14-.25-.05-.56.2-.69.25-.14.56-.05.69.2,0,0,0,.01.01.02.51.94,2.04,4.11,1.53,5.28-.11.26-.34.45-.62.51-.47.12-.96.18-1.45.18Z"/>
    <path class="uuid-7b4d6a50-4dff-4bcc-8153-cca909923ecc" d="m51.9,47.1h2.85v18.64h-2.85c-2.09,0-3.78-1.69-3.78-3.78h0v-11.08c0-2.09,1.69-3.78,3.78-3.78h0Z"/>
    <path class="uuid-de7b537d-133f-4f36-8c7b-3a1f5c221a9b" d="m54.75,66.25h-2.85c-2.37,0-4.29-1.92-4.29-4.29v-11.08c0-2.37,1.92-4.29,4.29-4.29h2.85c.28,0,.51.23.51.51v18.64c0,.28-.23.51-.51.51Zm-2.85-18.64c-1.81,0-3.27,1.46-3.27,3.27h0v11.08c0,1.8,1.47,3.27,3.27,3.27h2.34v-17.62h-2.34Z"/>
    <path class="uuid-7b4d6a50-4dff-4bcc-8153-cca909923ecc" d="m95.32,65.74h-2.85v-18.64h2.85c2.09,0,3.78,1.69,3.78,3.78h0v11.08c0,2.09-1.69,3.78-3.78,3.78h0Z"/>
    <path class="uuid-de7b537d-133f-4f36-8c7b-3a1f5c221a9b" d="m95.32,66.25h-2.85c-.28,0-.51-.23-.51-.51v-18.64c0-.28.23-.51.51-.51h2.85c2.37,0,4.29,1.92,4.29,4.29v11.08c0,2.37-1.92,4.29-4.29,4.29Zm-2.34-1.02h2.34c1.8,0,3.27-1.46,3.27-3.27v-11.08c0-1.81-1.46-3.27-3.27-3.27h-2.34v17.62Z"/>
    <path class="uuid-de7b537d-133f-4f36-8c7b-3a1f5c221a9b" d="m73.78,73.29c-1.35.03-2.68-.29-3.87-.93-1.08-.57-1.95-1.48-2.47-2.59-.1-.26.02-.56.29-.66s.56.02.66.29c.08.21,2.16,5.03,10.72,1.72.26-.1.56.03.66.29s-.03.56-.29.66h0c-1.8.75-3.73,1.17-5.68,1.22Z"/>
    <path class="uuid-de7b537d-133f-4f36-8c7b-3a1f5c221a9b" d="m61.23,75.42c-2.47,0-5.81-.29-7.5-1.65-2.85-2.31-2.74-7.75-2.73-7.98,0-.28.23-.51.51-.51h0c.28,0,.51.23.51.51,0,.05-.1,5.17,2.35,7.14s9.69,1.3,9.78,1.29c.28-.03.53.18.56.45.03.28-.17.53-.45.56,0,0,0,0,0,0-.12.05-1.38.18-3.02.18Z"/>
    <path class="uuid-7b4d6a50-4dff-4bcc-8153-cca909923ecc" d="m60.53,72.79h4.89c.97,0,1.76.79,1.76,1.76h0c0,.97-.79,1.76-1.76,1.76h-4.89c-.97,0-1.76-.79-1.76-1.76h0c0-.97.79-1.76,1.76-1.76Z"/>
    <path class="uuid-de7b537d-133f-4f36-8c7b-3a1f5c221a9b" d="m65.42,76.81h-4.89c-1.25,0-2.27-1.01-2.27-2.27s1.01-2.27,2.27-2.27h4.89c1.25,0,2.27,1.01,2.27,2.27s-1.01,2.27-2.27,2.27Zm-4.89-3.52c-.69,0-1.25.56-1.25,1.25s.56,1.25,1.25,1.25h4.89c.69,0,1.25-.56,1.25-1.25s-.56-1.25-1.25-1.25h-4.89Z"/>
    <path class="uuid-0ce5f370-1d6b-43f0-8db6-eeea2c8111f1" d="m65.05,81.75h17.15c6.12,0,11.08,4.96,11.08,11.08v24.16h-39.29v-24.15c0-6.11,4.95-11.07,11.06-11.08Z"/>
    <path class="uuid-de7b537d-133f-4f36-8c7b-3a1f5c221a9b" d="m93.28,117.5h-39.29c-.28,0-.51-.23-.51-.51v-24.16c0-6.4,5.19-11.58,11.59-11.59h17.15c6.4,0,11.59,5.19,11.59,11.59v24.16c0,.28-.23.51-.51.51,0,0-.01,0-.02,0Zm-38.78-1.02h38.27v-23.65c0-5.84-4.74-10.56-10.57-10.57h-17.15c-5.83,0-10.56,4.74-10.57,10.57l.02,23.65Z"/>
    <path class="uuid-de7b537d-133f-4f36-8c7b-3a1f5c221a9b" d="m59.91,56.69c-.45-.01-.8-.39-.79-.83.01-.39.3-.72.68-.78l8.43-1.06c.45-.03.83.31.86.76.03.41-.26.77-.66.85l-8.43,1.06h-.1Z"/>
    <path class="uuid-de7b537d-133f-4f36-8c7b-3a1f5c221a9b" d="m87.3,56.69h-.08l-8.43-1.06c-.44-.08-.73-.51-.65-.95.08-.4.44-.69.85-.66l8.43,1.06c.44.07.75.48.68.93-.06.38-.38.67-.77.69h-.02Z"/>
    <path class="uuid-14dcd2bb-1fc8-47d8-b57f-205fe38fd342" d="m73.62,90.93c-4.28,0-10.45-9.18-10.45-9.18h20.9s-6.17,9.18-10.45,9.18Z"/>
    <path class="uuid-de7b537d-133f-4f36-8c7b-3a1f5c221a9b" d="m73.62,91.44c-4.5,0-10.61-9.03-10.87-9.41-.09-.16-.09-.35,0-.51.09-.17.26-.27.45-.27h20.9c.19,0,.36.1.45.27.08.16.07.36-.03.51-.28.38-6.4,9.41-10.89,9.41Zm-9.47-9.18c2.04,2.85,6.49,8.16,9.47,8.16s7.41-5.31,9.47-8.16h-18.94Z"/>
    <path class="uuid-14dcd2bb-1fc8-47d8-b57f-205fe38fd342" d="m66.03,81.75s3.02,3.06,4.4,2.67c1.39-.39,3.13-2.67,3.13-2.67h-7.54Z"/>
    <path class="uuid-de7b537d-133f-4f36-8c7b-3a1f5c221a9b" d="m70.2,84.96c-1.62,0-4.03-2.35-4.53-2.85-.2-.2-.2-.52,0-.72.1-.1.23-.15.37-.15h7.54c.2,0,.37.11.46.29.09.17.07.38-.05.54-.19.25-1.89,2.44-3.4,2.85-.12.04-.25.05-.38.05Zm-2.87-2.7c1.18,1.02,2.44,1.82,2.98,1.67.67-.19,1.53-.99,2.17-1.67h-5.15Z"/>
    <path class="uuid-14dcd2bb-1fc8-47d8-b57f-205fe38fd342" d="m81.22,81.75s-3.02,3.06-4.41,2.67c-1.39-.39-3.13-2.67-3.13-2.67h7.54Z"/>
    <path class="uuid-de7b537d-133f-4f36-8c7b-3a1f5c221a9b" d="m77.05,84.96c-.13,0-.25-.02-.37-.05-1.53-.41-3.21-2.6-3.4-2.85-.17-.22-.13-.54.09-.72.09-.07.2-.11.31-.11h7.54c.21,0,.39.13.47.32.08.19.04.41-.11.56-.48.5-2.91,2.85-4.53,2.85Zm-2.27-2.7c.63.68,1.49,1.48,2.17,1.67.51.14,1.8-.66,2.97-1.67h-5.14Zm6.44,0h0Z"/>
    <path class="uuid-de7b537d-133f-4f36-8c7b-3a1f5c221a9b" d="m73.68,91.44c-.28,0-.51-.23-.51-.51v-9.18c0-.28.23-.51.51-.51s.51.23.51.51v9.18c0,.28-.23.51-.51.51Z"/>
    <path class="uuid-0ce5f370-1d6b-43f0-8db6-eeea2c8111f1" d="m49.81,79.71s-12.88,24.4-8.16,29.54,10.63,1.7,12.35-2.04c1.72-3.74,2.52-24.73,2.52-24.73l-6.7-2.77Z"/>
    <path class="uuid-de7b537d-133f-4f36-8c7b-3a1f5c221a9b" d="m47.02,112.37c-1.64,0-3.72-.58-5.74-2.77-4.93-5.36,7.54-29.12,8.07-30.13.12-.23.41-.33.65-.23l6.7,2.78c.2.08.33.29.32.51-.04.86-.8,21.14-2.55,24.93-1.22,2.54-3.59,4.34-6.36,4.85-.36.05-.72.07-1.09.07Zm3.02-32.01c-3.65,7.01-11.62,24.63-8.01,28.55,1.73,1.89,3.79,2.7,5.93,2.37,2.43-.46,4.5-2.05,5.58-4.27,1.53-3.34,2.32-21.43,2.43-24.18l-5.94-2.46Z"/>
    <path class="uuid-c237757d-38e2-4570-86cd-a93a9863646a" d="m53.83,70.32s8.53-.86,9.29,1.06-1.92,2.39-5.08,2.01c0,0,2.59,1.44,2.59,3.93s-4.12,5.16-4.12,5.16l-6.7-2.78s.09-7.18,4.02-9.38Z"/>
    <path class="uuid-de7b537d-133f-4f36-8c7b-3a1f5c221a9b" d="m56.51,82.99c-.07,0-.14-.01-.2-.04l-6.7-2.78c-.19-.08-.31-.27-.31-.47,0-.31.15-7.51,4.28-9.83.06-.04.13-.06.2-.06,2.09-.21,8.98-.73,9.82,1.37.28.57.22,1.25-.16,1.76-.69.9-2.31,1.1-3.78,1.07.91.86,1.44,2.04,1.48,3.3,0,2.73-4.17,5.48-4.35,5.61-.08.05-.18.07-.28.07Zm-6.18-3.62l6.12,2.55c1.2-.83,3.67-2.89,3.67-4.59,0-2.17-2.3-3.47-2.33-3.48-.25-.13-.34-.44-.21-.69.1-.19.31-.29.52-.26,2.77.34,4.17-.09,4.53-.56.09-.12.19-.32,0-.76-.38-.95-4.77-1.13-8.67-.74-3.05,1.81-3.55,7.14-3.63,8.54h0Z"/>
    <path class="uuid-14dcd2bb-1fc8-47d8-b57f-205fe38fd342" d="m92.84,124.43h-39.94c-1.93,0-3.53-1.48-3.68-3.4l-1.78-22.96c-.16-2.03,1.36-3.81,3.39-3.96.1,0,.19-.01.29-.01h43.5c2.04,0,3.69,1.65,3.69,3.69,0,.1,0,.19-.01.29l-1.78,22.96c-.15,1.92-1.75,3.4-3.67,3.4Z"/>
    <path class="uuid-de7b537d-133f-4f36-8c7b-3a1f5c221a9b" d="m92.84,124.94h-39.94c-2.19,0-4.01-1.69-4.19-3.87l-1.78-22.96c-.18-2.32,1.56-4.34,3.87-4.51.11,0,.21-.01.32-.01h43.5c2.32,0,4.2,1.89,4.2,4.21,0,.11,0,.21-.01.32l-1.78,22.96c-.18,2.18-2,3.86-4.18,3.87Zm-41.72-30.36c-1.76,0-3.18,1.42-3.18,3.18,0,.08,0,.17,0,.25l1.78,22.96c.14,1.65,1.51,2.93,3.17,2.93h39.94c1.66,0,3.04-1.28,3.17-2.93l1.78-22.96c.14-1.75-1.17-3.28-2.92-3.42-.08,0-.17,0-.25,0h-43.5Z"/>
    <path class="uuid-9b26ed84-7e5a-4a8e-9f3e-2b0539a38b2b" d="m72.86,113.42c-2.31,0-4.17-1.87-4.17-4.17s1.87-4.17,4.17-4.17,4.17,1.87,4.17,4.17h0c0,2.3-1.87,4.17-4.17,4.17Zm0-7.33c-1.74,0-3.15,1.41-3.15,3.15s1.41,3.15,3.15,3.15,3.15-1.41,3.15-3.15h0c0-1.74-1.41-3.15-3.15-3.15Z"/>
  </g>
</svg>