<?xml version="1.0" encoding="UTF-8"?>
<svg id="uuid-abfd2758-e90c-4ced-9619-40ebed913a8c" data-name="Capa 1" xmlns="http://www.w3.org/2000/svg" viewBox="0 0 150 150">
  <defs>
    <style>
      .uuid-6978bcaf-030f-4026-9413-72b18dfa66da, .uuid-f48d8006-9695-46f9-8633-6df2b21f2e35, .uuid-d62e7f57-3ec5-4c12-951a-3b2e01973f39, .uuid-bb058478-275d-48be-bf60-e2845b021e00 {
        stroke: #231f20;
        stroke-miterlimit: 10;
        stroke-width: 1.5px;
      }

      .uuid-6978bcaf-030f-4026-9413-72b18dfa66da, .uuid-4a103dd3-7c09-4fcc-88d6-072a5d5ef443 {
        fill: #0099f5;
      }

      .uuid-86afebf2-dbca-4832-9265-6db5f28ac971, .uuid-d62e7f57-3ec5-4c12-951a-3b2e01973f39 {
        fill: #f0457d;
      }

      .uuid-4323133a-2d7e-4283-8886-5e069619da25 {
        fill: #0064f4;
      }

      .uuid-44577527-6b45-486f-8657-668131f28c4e {
        fill: #ff9515;
      }

      .uuid-f48d8006-9695-46f9-8633-6df2b21f2e35 {
        fill: none;
      }

      .uuid-35ea424b-b5fa-431f-9598-5e39876a837f, .uuid-bb058478-275d-48be-bf60-e2845b021e00 {
        fill: #ffd44d;
      }
    </style>
  </defs>
  <g id="uuid-2d66158f-8e35-4e7e-888e-aa8ea707a744" data-name="Layer 2">
    <path class="uuid-4a103dd3-7c09-4fcc-88d6-072a5d5ef443" d="m44.32,44.11h61.36c3.15,0,5.71,2.56,5.71,5.71v38.61H38.6v-38.61c0-3.15,2.56-5.71,5.71-5.71,0,0,0,0,.01,0Z"/>
    <polygon class="uuid-35ea424b-b5fa-431f-9598-5e39876a837f" points="26.68 100.27 123.32 100.27 111.4 88.48 38.6 88.48 26.68 100.27"/>
    <path class="uuid-44577527-6b45-486f-8657-668131f28c4e" d="m26.68,100.27h0c0,3.1,2.51,5.62,5.62,5.62h85.42c3.1,0,5.62-2.51,5.62-5.62h0s-96.65,0-96.65,0Z"/>
    <path class="uuid-f48d8006-9695-46f9-8633-6df2b21f2e35" d="m61.15,44.11h44.36c3.23,0,5.85,2.62,5.85,5.85v38.51H38.6v-38.46c0-3.23,2.62-5.85,5.85-5.85h9.27"/>
    <line class="uuid-f48d8006-9695-46f9-8633-6df2b21f2e35" x1="26.68" y1="100.27" x2="123.32" y2="100.27"/>
    <polyline class="uuid-f48d8006-9695-46f9-8633-6df2b21f2e35" points="123.32 100.27 111.4 88.48 38.6 88.48 26.68 100.27"/>
    <path class="uuid-f48d8006-9695-46f9-8633-6df2b21f2e35" d="m26.68,100.27h0c0,3.1,2.51,5.62,5.62,5.62h85.42c3.1,0,5.62-2.51,5.62-5.62h0s-96.65,0-96.65,0Z"/>
    <path class="uuid-bb058478-275d-48be-bf60-e2845b021e00" d="m80.34,75h0c-1.45-2.38-3.85-4.02-6.59-4.5-.58-.12-1.17-.18-1.76-.18h-16c-1.58.02-3.13.42-4.53,1.17-3.19,1.68-5.19,5-5.18,8.61v8.42h35.43v-8.42c.02-1.8-.46-3.56-1.38-5.1Z"/>
    <path class="uuid-4323133a-2d7e-4283-8886-5e069619da25" d="m70.32,70.32c0,3.48-2.82,6.3-6.3,6.3s-6.3-2.82-6.3-6.3h12.59Z"/>
    <circle class="uuid-86afebf2-dbca-4832-9265-6db5f28ac971" cx="64" cy="59.7" r="8.32"/>
    <circle class="uuid-bb058478-275d-48be-bf60-e2845b021e00" cx="64" cy="59.7" r="8.32"/>
    <path class="uuid-6978bcaf-030f-4026-9413-72b18dfa66da" d="m70.32,70.32c0,3.48-2.82,6.3-6.3,6.3s-6.3-2.82-6.3-6.3h12.59Z"/>
    <line class="uuid-f48d8006-9695-46f9-8633-6df2b21f2e35" x1="53.76" y1="82.56" x2="53.76" y2="88.15"/>
    <line class="uuid-f48d8006-9695-46f9-8633-6df2b21f2e35" x1="74.24" y1="82.56" x2="74.24" y2="88.15"/>
    <path class="uuid-d62e7f57-3ec5-4c12-951a-3b2e01973f39" d="m106.88,61.6h0c-.78-1.27-2.05-2.15-3.51-2.43-.3-.06-.61-.08-.92-.08h-8.73c-2.89,0-5.23,2.35-5.23,5.24v4.55h19.14v-4.58c0-.95-.25-1.89-.75-2.7Z"/>
    <path class="uuid-4323133a-2d7e-4283-8886-5e069619da25" d="m101.48,59.08c0,1.87-1.52,3.39-3.39,3.39s-3.39-1.52-3.39-3.39h6.79Z"/>
    <circle class="uuid-86afebf2-dbca-4832-9265-6db5f28ac971" cx="98.09" cy="53.34" r="4.48"/>
    <circle class="uuid-d62e7f57-3ec5-4c12-951a-3b2e01973f39" cx="98.09" cy="53.34" r="4.48"/>
    <path class="uuid-6978bcaf-030f-4026-9413-72b18dfa66da" d="m101.48,59.08c0,1.87-1.52,3.39-3.39,3.39s-3.39-1.52-3.39-3.39h6.79Z"/>
    <line class="uuid-f48d8006-9695-46f9-8633-6df2b21f2e35" x1="92.56" y1="65.66" x2="92.56" y2="68.68"/>
    <line class="uuid-f48d8006-9695-46f9-8633-6df2b21f2e35" x1="103.6" y1="65.66" x2="103.6" y2="68.68"/>
    <path class="uuid-f48d8006-9695-46f9-8633-6df2b21f2e35" d="m84.77,44.11v22.91c0,1.01.81,1.83,1.81,1.84,0,0,0,0,.01,0h24.81"/>
  </g>
</svg>