<?xml version="1.0" encoding="UTF-8"?>
<svg id="uuid-4df59e45-6b48-4523-ac9e-e4b0b170649d" data-name="Capa 1" xmlns="http://www.w3.org/2000/svg" viewBox="0 0 150 150">
  <defs>
    <style>
      .uuid-c7e5612e-743e-4726-9f44-d29cd24503a7 {
        opacity: .08;
      }

      .uuid-c7e5612e-743e-4726-9f44-d29cd24503a7, .uuid-dbfaf2e0-dabe-4407-a0a1-b691bba64756, .uuid-e2bfdf6c-164f-4400-a030-dfbc4014ab7c, .uuid-309f4bde-2906-4b91-8cfb-b8a5f8b61945, .uuid-4adcd3fb-dc7e-4430-a83a-3dfba75bb69a, .uuid-587b9d47-8816-465d-b44f-851a0075563f, .uuid-7932bd44-efc2-4fbd-8df9-98a824e26add, .uuid-f02ac7f7-16bf-40df-8de2-e9f3619ce0e2 {
        isolation: isolate;
      }

      .uuid-94f8f88d-357e-48ff-a3db-32f06b3b042a, .uuid-dbfaf2e0-dabe-4407-a0a1-b691bba64756, .uuid-e2bfdf6c-164f-4400-a030-dfbc4014ab7c, .uuid-587b9d47-8816-465d-b44f-851a0075563f, .uuid-f02ac7f7-16bf-40df-8de2-e9f3619ce0e2 {
        fill: #fff;
      }

      .uuid-b9f2f11a-36f7-4ea9-b610-5098e752c2ce {
        fill: #f4a28c;
      }

      .uuid-dbfaf2e0-dabe-4407-a0a1-b691bba64756 {
        opacity: .46;
      }

      .uuid-e2bfdf6c-164f-4400-a030-dfbc4014ab7c {
        opacity: .11;
      }

      .uuid-309f4bde-2906-4b91-8cfb-b8a5f8b61945, .uuid-f02ac7f7-16bf-40df-8de2-e9f3619ce0e2 {
        opacity: .17;
      }

      .uuid-4adcd3fb-dc7e-4430-a83a-3dfba75bb69a {
        opacity: .54;
      }

      .uuid-4adcd3fb-dc7e-4430-a83a-3dfba75bb69a, .uuid-7932bd44-efc2-4fbd-8df9-98a824e26add {
        fill: #e6e6e6;
      }

      .uuid-587b9d47-8816-465d-b44f-851a0075563f {
        opacity: .51;
      }

      .uuid-ccbc1ca3-f5ca-4e50-9a95-2d2f8bb7d9cc {
        fill: #24285b;
      }

      .uuid-7932bd44-efc2-4fbd-8df9-98a824e26add {
        opacity: .45;
      }

      .uuid-ff91f93a-bef0-4591-9cd3-478a2e55b705 {
        fill: #ffd200;
      }

      .uuid-875bc80f-6242-499d-9453-c9f8d7876699 {
        fill: #68e1fd;
      }
    </style>
  </defs>
  <path class="uuid-4adcd3fb-dc7e-4430-a83a-3dfba75bb69a" d="m92.42,91.44s15.4,2.04,15.98-6.28c.58-8.33-2.53-9.38,4.09-12.16s1.95,6.55,7.4,5.48c5.45-1.07-1.95-9.82,2.92-11.86s13.24,1.46,10.71,8.27-9.34,5.36-9.73,10.27,8.57,9.78.78,13.57c-4.11,2.01-7.46.62-9.71-1.15-2.12-1.71-4.89-2.39-7.56-1.86-3.98.85-8.13.28-11.74-1.59l-3.14-2.69Z"/>
  <path class="uuid-875bc80f-6242-499d-9453-c9f8d7876699" d="m59.05,96.39s-.11,1.44-1.26,1.87-1.14,1.68,0,1.68,3.5-2.13,3.5-2.13l-.56-1.69-1.69.27Z"/>
  <path class="uuid-c7e5612e-743e-4726-9f44-d29cd24503a7" d="m59.05,96.39s-.11,1.44-1.26,1.87-1.14,1.68,0,1.68,3.5-2.13,3.5-2.13l-.56-1.69-1.69.27Z"/>
  <path class="uuid-b9f2f11a-36f7-4ea9-b610-5098e752c2ce" d="m58.88,69.31s-4.38-1.71-4.82,0,5.47,2.48,5.47,2.48l-.65-2.48Z"/>
  <path class="uuid-c7e5612e-743e-4726-9f44-d29cd24503a7" d="m58.88,69.31s-4.38-1.71-4.82,0,5.47,2.48,5.47,2.48l-.65-2.48Z"/>
  <ellipse class="uuid-7932bd44-efc2-4fbd-8df9-98a824e26add" cx="67.93" cy="110.41" rx="51.91" ry="6.57"/>
  <path class="uuid-b9f2f11a-36f7-4ea9-b610-5098e752c2ce" d="m50.36,41.01s-.21,2.88.3,4.78c.21.77,1,1.23,1.77,1.02.95-.27,2.17-.91,2.47-2.44l.83-2.53c.23-1.07-.24-2.17-1.17-2.75-1.64-1.15-4.16.16-4.2,1.92Z"/>
  <polygon class="uuid-b9f2f11a-36f7-4ea9-b610-5098e752c2ce" points="53.02 41.67 61.59 45.66 59.06 50.22 53.97 45.61 53.02 41.67"/>
  <path class="uuid-ccbc1ca3-f5ca-4e50-9a95-2d2f8bb7d9cc" d="m51.08,41.12c.89.03,1.79-.05,2.66-.24-.52.81-.51,1.85.03,2.64.51.79,1.51,1.11,2.38.75l-.1-3.72c.01-1.08-.57-2.08-1.52-2.6-.4-.22-.82-.42-1.25-.59-1.07-.41-2.63.32-3.59-.39-.31-.23-.75-.15-.97.16-.07.09-.11.2-.12.31-.15,1.13.07,2.9,1.6,3.5.28.11.58.17.88.18Z"/>
  <path class="uuid-b9f2f11a-36f7-4ea9-b610-5098e752c2ce" d="m53.46,43.44s0-1.11.84-1.04.84,1.68-.3,1.85l-.55-.81Z"/>
  <path class="uuid-b9f2f11a-36f7-4ea9-b610-5098e752c2ce" d="m50.32,42.83l-.78,1.12c-.15.21-.1.5.11.65.06.04.12.07.19.08l1.11.19-.62-2.04Z"/>
  <path class="uuid-875bc80f-6242-499d-9453-c9f8d7876699" d="m58.76,69.26l9.92-2.52s-10.05-4.14-7.61-11.59,16.02,13.75,16.02,13.75l-17.39,3.09-.94-2.73Z"/>
  <path class="uuid-c7e5612e-743e-4726-9f44-d29cd24503a7" d="m58.76,69.26l9.92-2.52s-10.05-4.14-7.61-11.59,16.02,13.75,16.02,13.75l-17.39,3.09-.94-2.73Z"/>
  <path class="uuid-ccbc1ca3-f5ca-4e50-9a95-2d2f8bb7d9cc" d="m97.72,73.57s1,9.34-10.49,8.62c-5.91-.37-12.75-.45-18-.45-3.97,0-7.18,3.22-7.17,7.19,0,.41.04.83.11,1.23l.98,5.61-3.81.86-1.46-6.1c-1.68-7.11,2.47-14.3,9.47-16.39l7.21-2.16,23.16,1.58Z"/>
  <path class="uuid-ccbc1ca3-f5ca-4e50-9a95-2d2f8bb7d9cc" d="m65.13,74.43s-9.17,2.11-8.74,12.57l1.95,9.66,2.55-.48s-2.65-18.57,7.05-21.05v-1.13l-2.81.42Z"/>
  <path class="uuid-875bc80f-6242-499d-9453-c9f8d7876699" d="m57.25,51.99l4.35-6.33s4.5-2.27,14.13-1.41,23.43,8.33,22,29.32l-20.66.5s4.61-6.52-3.99-6.95c-8.6-.43-19.11-2.97-15.82-15.13Z"/>
  <path class="uuid-c7e5612e-743e-4726-9f44-d29cd24503a7" d="m74.71,52.89s14.92,2.29,15.47,20.87l-14.77.64,2.21-7.27-2.9-14.24Z"/>
  <path class="uuid-ccbc1ca3-f5ca-4e50-9a95-2d2f8bb7d9cc" d="m69.6,42.11s-12.21.78-12.29,9.61c-.08,8.83,6.72,13.05,13.63,14.62,8.46,1.93,17.02-2.65,19.23-11.97l-3.27-3.09s-1.95,9.49-10.79,8.84-23.06-11.27-3.5-15.06l-3.01-2.96Z"/>
  <path class="uuid-875bc80f-6242-499d-9453-c9f8d7876699" d="m67.39,48.81c-2.57-.93-5.4.4-6.33,2.97-.39,1.09-.39,2.28,0,3.37l.06.16c2.16,5.54,13.44,12.29,13.44,12.29l-15.24,2.59.72,3.5s16.1,3.09,22-1.72c5.42-4.4-2.15-18.64-14.66-23.17Z"/>
  <path class="uuid-dbfaf2e0-dabe-4407-a0a1-b691bba64756" d="m67.39,48.81c-2.57-.93-5.4.4-6.33,2.97-.39,1.09-.39,2.28,0,3.37l.06.16c2.16,5.54,13.44,12.29,13.44,12.29l-15.24,2.59.72,3.5s16.1,3.09,22-1.72c5.42-4.4-2.15-18.64-14.66-23.17Z"/>
  <polygon class="uuid-ccbc1ca3-f5ca-4e50-9a95-2d2f8bb7d9cc" points="71.58 105.78 85.83 105.78 95.92 95.62 93.05 90.9 73.49 97.87 71.58 105.78"/>
  <path class="uuid-ccbc1ca3-f5ca-4e50-9a95-2d2f8bb7d9cc" d="m67.82,44.41s-1.19-7.25,4.75-9.51c5.56-2.13,21.48.7,26.29,15.16.54,1.65-.02,3.47-1.39,4.53l-1.67,1.3c-2.26,1.77-5.53,1.38-7.31-.88,0,0-.02-.02-.02-.03-3.2-4.18-9.54-9.87-20.64-10.57Z"/>
  <path class="uuid-ff91f93a-bef0-4591-9cd3-478a2e55b705" d="m51.26,67.18l-1.78.24c-1.59.22-2.71,1.68-2.49,3.27,0,.02,0,.04,0,.06l.21,1.37c.23,1.48,1.51,2.57,3,2.57h.1s-9.96,8.58-11.33,14.92l11.12,13.46c1.41,1.72,3.52,2.72,5.75,2.73h15.71s4.36-10.86,23.41-11.72c0,0,1.95-5.03-3.31-9.49l-20.1,1.36-4.41,2.95.55,3.84c.39,2.7-1.18,5.29-3.75,6.2h0c-3.13,1.1-6.61.09-8.66-2.5-3-3.78-5.74-10.12-1.29-18.53,0,0,5.58-7.93.23-10.32-.94-.41-1.97-.56-2.99-.41Z"/>
  <polygon class="uuid-ff91f93a-bef0-4591-9cd3-478a2e55b705" points="48.8 67.6 50.22 74.69 47.04 74.69 46.04 68.54 48.8 67.6"/>
  <polygon class="uuid-587b9d47-8816-465d-b44f-851a0075563f" points="48.8 67.6 50.22 74.69 47.04 74.69 46.04 68.54 48.8 67.6"/>
  <path class="uuid-b9f2f11a-36f7-4ea9-b610-5098e752c2ce" d="m59.34,70.92s-4.38-1.71-4.82,0,5.45,2.48,5.45,2.48l-.63-2.48Z"/>
  <circle class="uuid-ff91f93a-bef0-4591-9cd3-478a2e55b705" cx="54.5" cy="72.41" r="1.66"/>
  <circle class="uuid-ccbc1ca3-f5ca-4e50-9a95-2d2f8bb7d9cc" cx="37.73" cy="102.62" r="8.94"/>
  <circle class="uuid-94f8f88d-357e-48ff-a3db-32f06b3b042a" cx="37.73" cy="102.62" r="5.98"/>
  <path class="uuid-875bc80f-6242-499d-9453-c9f8d7876699" d="m37.73,109.19c-3.63,0-6.56-2.94-6.56-6.56,0-3.63,2.94-6.56,6.56-6.56s6.56,2.94,6.56,6.56c0,3.62-2.94,6.56-6.56,6.56Zm0-11.96c-2.98,0-5.4,2.42-5.4,5.4,0,2.98,2.42,5.4,5.4,5.4s5.4-2.42,5.4-5.4h0c0-2.98-2.42-5.39-5.4-5.4Z"/>
  <path class="uuid-e2bfdf6c-164f-4400-a030-dfbc4014ab7c" d="m80.61,98.01s-3.5,4.31-4.24,7.76h8.18l2.66-4.75-2.52-4.39-4.08,1.37Z"/>
  <circle class="uuid-ccbc1ca3-f5ca-4e50-9a95-2d2f8bb7d9cc" cx="91.84" cy="102.62" r="8.94"/>
  <circle class="uuid-94f8f88d-357e-48ff-a3db-32f06b3b042a" cx="91.84" cy="102.62" r="5.98"/>
  <path class="uuid-875bc80f-6242-499d-9453-c9f8d7876699" d="m91.84,109.19c-3.63,0-6.56-2.94-6.56-6.57s2.94-6.56,6.57-6.56c3.62,0,6.56,2.94,6.56,6.56,0,3.63-2.94,6.56-6.57,6.56Zm0-11.96c-2.98,0-5.39,2.42-5.39,5.4,0,2.98,2.42,5.39,5.4,5.39,2.98,0,5.39-2.42,5.39-5.4,0-2.98-2.42-5.39-5.4-5.4Z"/>
  <circle class="uuid-c7e5612e-743e-4726-9f44-d29cd24503a7" cx="54.5" cy="72.41" r="1.66"/>
  <path class="uuid-ff91f93a-bef0-4591-9cd3-478a2e55b705" d="m38.99,89.61s-5.1.6-7.73,4.87c-.3.48-.16,1.12.32,1.42.22.14.48.19.74.14,3.07-.53,9.31-.52,16.61,5.62l-9.94-12.05Z"/>
  <path class="uuid-c7e5612e-743e-4726-9f44-d29cd24503a7" d="m38.99,89.61s-5.1.6-7.73,4.87c-.3.48-.16,1.12.32,1.42.22.14.48.19.74.14,3.07-.53,9.31-.52,16.61,5.62l-9.94-12.05Z"/>
  <path class="uuid-ff91f93a-bef0-4591-9cd3-478a2e55b705" d="m67.48,88.88s-4.54-3.63-2.59-6.76,11.1.21,18.22-2.16c7.12-2.37,13.76-.5,8.88,4.6l-24.51,4.31Z"/>
  <path class="uuid-309f4bde-2906-4b91-8cfb-b8a5f8b61945" d="m67.48,88.88s-4.54-3.63-2.59-6.76,11.1.21,18.22-2.16c7.12-2.37,13.76-.5,8.88,4.6l-24.51,4.31Z"/>
  <ellipse class="uuid-ff91f93a-bef0-4591-9cd3-478a2e55b705" cx="79.19" cy="34.63" rx="1.57" ry="2.97" transform="translate(33 107.68) rotate(-81.31)"/>
  <path class="uuid-ff91f93a-bef0-4591-9cd3-478a2e55b705" d="m76.11,100.26s-4.93-4.84,0-8.57c4.42-3.35,14.52-5.43,20.89-.97.78.56.96,1.65.39,2.44-.17.24-.41.43-.67.56-4.25,2.03-13.48,6.07-20.61,6.54Z"/>
  <path class="uuid-c7e5612e-743e-4726-9f44-d29cd24503a7" d="m76.11,100.26s-4.93-4.84,0-8.57c4.42-3.35,14.52-5.43,20.89-.97.78.56.96,1.65.39,2.44-.17.24-.41.43-.67.56-4.25,2.03-13.48,6.07-20.61,6.54Z"/>
  <path class="uuid-ff91f93a-bef0-4591-9cd3-478a2e55b705" d="m97.7,92.43c1.05,1.67,2.39,3.14,3.97,4.33.26.2.31.57.11.82-.15.19-.4.28-.63.21-2.23-.62-4.24-1.86-5.81-3.57l2.36-1.79Z"/>
  <path class="uuid-875bc80f-6242-499d-9453-c9f8d7876699" d="m49.2,36.04c-.79.52-1.31,1.35-1.44,2.29-.14,1.04-.07,2.34,1.02,2.83,1.95.86,4.24.51,4.24.51,0,0-.19,3.75,2.5,3.58s3.18-4.58,2.31-6.85c-.8-2.11-3.92-5.48-8.62-2.36Z"/>
  <path class="uuid-ccbc1ca3-f5ca-4e50-9a95-2d2f8bb7d9cc" d="m47.91,40.24s-3.87,2.2-2.15,2.85,7.26-1.43,7.26-1.43c0,0-4.36.46-5.11-1.43Z"/>
  <path class="uuid-875bc80f-6242-499d-9453-c9f8d7876699" d="m60.87,96.17s-.11,1.44-1.26,1.87-1.14,1.67,0,1.68,3.5-2.14,3.5-2.14l-.56-1.68-1.69.27Z"/>
  <circle class="uuid-dbfaf2e0-dabe-4407-a0a1-b691bba64756" cx="55.04" cy="41.36" r="1.58"/>
  <path class="uuid-f02ac7f7-16bf-40df-8de2-e9f3619ce0e2" d="m46.48,84.6c.06-.6-.39-1.13-.99-1.19-.38-.04-.75.13-.98.44-1.61,2.14-3.05,4.71-2.2,6.26,1.65,3.02,3.66,3.6,4.36,1.56.49-1.44-.47-3.84-.19-7.06Z"/>
</svg>