<svg xmlns="http://www.w3.org/2000/svg" viewBox="0 0 100 100"><defs><style>.cls-1,.cls-8{fill:#0099f5;}.cls-2,.cls-5{fill:#ffd44d;}.cls-3{fill:#ff9515;}.cls-4{fill:none;}.cls-4,.cls-5,.cls-8,.cls-9{stroke:#231f20;stroke-miterlimit:10;stroke-width:1.5px;}.cls-6{fill:#0064f4;}.cls-7,.cls-9{fill:#f0457d;}</style></defs><g id="Layer_2" data-name="Layer 2"><path class="cls-1" d="M23.78,23.6H76.22a4.88,4.88,0,0,1,4.88,4.88v33a0,0,0,0,1,0,0H18.89a0,0,0,0,1,0,0v-33A4.88,4.88,0,0,1,23.78,23.6Z"/><polygon class="cls-2" points="8.7 71.6 91.3 71.6 81.11 61.52 18.89 61.52 8.7 71.6"/><path class="cls-3" d="M8.7,71.6h0a4.8,4.8,0,0,0,4.8,4.8h73a4.8,4.8,0,0,0,4.8-4.8H8.7Z"/><path class="cls-4" d="M38.16,23.6H76.07a5,5,0,0,1,5,5V61.51H18.89V28.64a5,5,0,0,1,5-5h7.92"/><line class="cls-4" x1="8.7" y1="71.6" x2="91.3" y2="71.6"/><polyline class="cls-4" points="91.3 71.6 81.11 61.52 18.89 61.52 8.7 71.6"/><path class="cls-4" d="M8.7,71.6h0a4.8,4.8,0,0,0,4.8,4.8h73a4.8,4.8,0,0,0,4.8-4.8H8.7Z"/><path class="cls-5" d="M54.56,50l0,0a8.3,8.3,0,0,0-5.63-3.85A7.18,7.18,0,0,0,47.43,46H33.76a8.42,8.42,0,0,0-3.87,1,8.3,8.3,0,0,0-4.43,7.36v7.2H55.74v-7.2A8.29,8.29,0,0,0,54.56,50Z"/><path class="cls-6" d="M46,46a5.38,5.38,0,0,1-10.76,0Z"/><circle class="cls-7" cx="40.6" cy="36.92" r="7.11"/><circle class="cls-5" cx="40.6" cy="36.92" r="7.11"/><path class="cls-8" d="M46,46a5.38,5.38,0,0,1-10.76,0Z"/><line class="cls-8" x1="31.85" y1="56.46" x2="31.85" y2="61.24"/><line class="cls-8" x1="49.35" y1="56.46" x2="49.35" y2="61.24"/><path class="cls-9" d="M77.25,38.55v0a4.54,4.54,0,0,0-3-2.08,4.15,4.15,0,0,0-.79-.07H66a4.48,4.48,0,0,0-4.47,4.48v3.89H77.89V40.86A4.39,4.39,0,0,0,77.25,38.55Z"/><path class="cls-6" d="M72.63,36.39a2.9,2.9,0,1,1-5.8,0Z"/><circle class="cls-7" cx="69.73" cy="31.49" r="3.83"/><circle class="cls-9" cx="69.73" cy="31.49" r="3.83"/><path class="cls-8" d="M72.63,36.39a2.9,2.9,0,1,1-5.8,0Z"/><line class="cls-8" x1="65.01" y1="42.02" x2="65.01" y2="44.6"/><line class="cls-8" x1="74.44" y1="42.02" x2="74.44" y2="44.6"/><path class="cls-4" d="M58.35,23.6V43.18a1.56,1.56,0,0,0,1.56,1.57h21.2"/></g></svg>